<svg xmlns="http://www.w3.org/2000/svg" xmlns:xlink="http://www.w3.org/1999/xlink" contentStyleType="text/css" data-diagram-type="CLASS" height="332px" preserveAspectRatio="none" style="width:288px;height:332px;background:#1B1B1B;" version="1.1" viewBox="0 0 288 332" width="288px" zoomAndPan="magnify"><defs/><g><rect fill="#1B1B1B" height="332" style="stroke:none;stroke-width:1;" width="288" x="0" y="0"/><!--class Noticia--><g class="entity" data-entity="Noticia" data-source-line="1" data-uid="ent0002" id="entity_Noticia"><rect fill="#313139" height="129.4844" rx="2.5" ry="2.5" style="stroke:#E7E7E7;stroke-width:0.5;" width="184.6348" x="52.03" y="196.49"/><ellipse cx="115.8059" cy="212.49" fill="#2E5233" rx="11" ry="11" style="stroke:#E7E7E7;stroke-width:1;"/><path d="M118.7746,218.1306 Q118.1965,218.4275 117.5559,218.5681 Q116.9153,218.7244 116.2121,218.7244 Q113.7121,218.7244 112.384,217.0838 Q111.0715,215.4275 111.0715,212.3025 Q111.0715,209.1775 112.384,207.5213 Q113.7121,205.865 116.2121,205.865 Q116.9153,205.865 117.5559,206.0213 Q118.2121,206.1775 118.7746,206.4744 L118.7746,209.1931 Q118.1496,208.615 117.5559,208.3494 Q116.9621,208.0681 116.3371,208.0681 Q114.9934,208.0681 114.3059,209.1463 Q113.6184,210.2088 113.6184,212.3025 Q113.6184,214.3963 114.3059,215.4744 Q114.9934,216.5369 116.3371,216.5369 Q116.9621,216.5369 117.5559,216.2713 Q118.1496,215.99 118.7746,215.4119 L118.7746,218.1306 Z " fill="#FFFFFF"/><text fill="#FFFFFF" font-family="sans-serif" font-size="14" lengthAdjust="spacing" textLength="48.583" x="136.3059" y="217.3367">Noticia</text><line style="stroke:#E7E7E7;stroke-width:0.5;" x1="53.03" x2="235.6648" y1="228.49" y2="228.49"/><rect fill="none" height="6" style="stroke:#C82930;stroke-width:1;" width="6" x="60.03" y="239.1384"/><text fill="#FFFFFF" font-family="sans-serif" font-size="14" lengthAdjust="spacing" textLength="88.7783" x="72.03" y="245.4851">idNoticia: int</text><rect fill="none" height="6" style="stroke:#C82930;stroke-width:1;" width="6" x="60.03" y="255.4353"/><text fill="#FFFFFF" font-family="sans-serif" font-size="14" lengthAdjust="spacing" textLength="87.1445" x="72.03" y="261.782">titulo: String</text><rect fill="none" height="6" style="stroke:#C82930;stroke-width:1;" width="6" x="60.03" y="271.7322"/><text fill="#FFFFFF" font-family="sans-serif" font-size="14" lengthAdjust="spacing" textLength="117.9268" x="72.03" y="278.0789">descricao: String</text><rect fill="none" height="6" style="stroke:#C82930;stroke-width:1;" width="6" x="60.03" y="288.0291"/><text fill="#FFFFFF" font-family="sans-serif" font-size="14" lengthAdjust="spacing" textLength="158.6348" x="72.03" y="294.3757">dataCriacao: Datetime</text><rect fill="none" height="6" style="stroke:#C82930;stroke-width:1;" width="6" x="60.03" y="304.3259"/><text fill="#FFFFFF" font-family="sans-serif" font-size="14" lengthAdjust="spacing" textLength="89.5098" x="72.03" y="310.6726">idAdmin : int</text><line style="stroke:#E7E7E7;stroke-width:0.5;" x1="53.03" x2="235.6648" y1="317.9744" y2="317.9744"/></g><!--class NoticiaDAO--><g class="entity" data-entity="NoticiaDAO" data-source-line="9" data-uid="ent0003" id="entity_NoticiaDAO"><rect fill="#313139" height="129.4844" rx="2.5" ry="2.5" style="stroke:#E7E7E7;stroke-width:0.5;" width="274.6982" x="7" y="7"/><ellipse cx="100.1191" cy="23" fill="#2E5233" rx="11" ry="11" style="stroke:#E7E7E7;stroke-width:1;"/><path d="M103.0879,28.6406 Q102.5098,28.9375 101.8691,29.0781 Q101.2285,29.2344 100.5254,29.2344 Q98.0254,29.2344 96.6973,27.5938 Q95.3848,25.9375 95.3848,22.8125 Q95.3848,19.6875 96.6973,18.0313 Q98.0254,16.375 100.5254,16.375 Q101.2285,16.375 101.8691,16.5313 Q102.5254,16.6875 103.0879,16.9844 L103.0879,19.7031 Q102.4629,19.125 101.8691,18.8594 Q101.2754,18.5781 100.6504,18.5781 Q99.3066,18.5781 98.6191,19.6563 Q97.9316,20.7188 97.9316,22.8125 Q97.9316,24.9063 98.6191,25.9844 Q99.3066,27.0469 100.6504,27.0469 Q101.2754,27.0469 101.8691,26.7813 Q102.4629,26.5 103.0879,25.9219 L103.0879,28.6406 Z " fill="#FFFFFF"/><text fill="#FFFFFF" font-family="sans-serif" font-size="14" lengthAdjust="spacing" textLength="79.96" x="120.6191" y="27.8467">NoticiaDAO</text><line style="stroke:#E7E7E7;stroke-width:0.5;" x1="8" x2="280.6982" y1="39" y2="39"/><line style="stroke:#E7E7E7;stroke-width:0.5;" x1="8" x2="280.6982" y1="47" y2="47"/><ellipse cx="18" cy="60.6484" fill="#84BE84" rx="3" ry="3" style="stroke:#038048;stroke-width:1;"/><text fill="#FFFFFF" font-family="sans-serif" font-size="14" lengthAdjust="spacing" textLength="239.1621" x="27" y="63.9951">criarNoticia(noticia : Noticia): void</text><ellipse cx="18" cy="76.9453" fill="#84BE84" rx="3" ry="3" style="stroke:#038048;stroke-width:1;"/><text fill="#FFFFFF" font-family="sans-serif" font-size="14" lengthAdjust="spacing" textLength="248.6982" x="27" y="80.292">editarNoticia(noticia : Noticia): void</text><ellipse cx="18" cy="93.2422" fill="#84BE84" rx="3" ry="3" style="stroke:#038048;stroke-width:1;"/><text fill="#FFFFFF" font-family="sans-serif" font-size="14" lengthAdjust="spacing" textLength="189.9502" x="27" y="96.5889">excluirNoticia(id : int): void</text><ellipse cx="18" cy="109.5391" fill="#84BE84" rx="3" ry="3" style="stroke:#038048;stroke-width:1;"/><text fill="#FFFFFF" font-family="sans-serif" font-size="14" lengthAdjust="spacing" textLength="234.4248" x="27" y="112.8857">pesquisarNoticia(id : int) : Noticia</text><ellipse cx="18" cy="125.8359" fill="#84BE84" rx="3" ry="3" style="stroke:#038048;stroke-width:1;"/><text fill="#FFFFFF" font-family="sans-serif" font-size="14" lengthAdjust="spacing" textLength="207.9971" x="27" y="129.1826">pesquisarNoticias() : Noticia[]</text></g><!--link NoticiaDAO to Noticia--><g class="link" data-entity-1="NoticiaDAO" data-entity-2="Noticia" data-source-line="18" data-uid="lnk4" id="link_NoticiaDAO_Noticia"><path codeLine="18" d="M144.35,136.74 C144.35,155.94 144.35,171 144.35,190.2" fill="none" id="NoticiaDAO-to-Noticia" style="stroke:#E7E7E7;stroke-width:1;stroke-dasharray:7.0,7.0;"/><polygon fill="#E7E7E7" points="144.35,196.2,148.35,187.2,144.35,191.2,140.35,187.2,144.35,196.2" style="stroke:#E7E7E7;stroke-width:1;"/><text fill="#FFFFFF" font-family="sans-serif" font-size="13" lengthAdjust="spacing" textLength="8.271" x="135.9274" y="156.7436">1</text><text fill="#FFFFFF" font-family="sans-serif" font-size="13" lengthAdjust="spacing" textLength="23.0356" x="120.0944" y="185.3409">0..*</text></g><!--SRC=[ZOyn2y8m48Nt_8eZKrKCkcOGYfrrS1I78mboqAQQN4KG_xl6jhQYW-DzVBptpfGO8sng9aC8Dm4m9zkT6iXp8apSbBM67GVonqIiYoQGmK-8ZEj0-C85icEgN9kOsueyj85t8SoujSYtgNVs3CJGiSntYtHlJJHSQh99T9RuJ_DgoeRUAjbsmiWukNXkAEAtCmJ-yc8s4lQ7z9GO_W6vbA3K2kH2gQdilGS0]--></g></svg>